<?xml version="1.0" encoding="UTF-8"?>
<svg xmlns="http://www.w3.org/2000/svg" xmlns:xlink="http://www.w3.org/1999/xlink" viewBox="0 0 65 73">
  <defs>
    <style>.cls-1{fill:url(#New_Gradient_Swatch_5);}.cls-2{fill:url(#New_Gradient_Swatch_5-2);}.cls-3{fill:url(#New_Gradient_Swatch_5-3);}.cls-4{fill:url(#New_Gradient_Swatch_5-4);}.cls-5{fill:url(#New_Gradient_Swatch_5-5);}</style>
    <linearGradient id="New_Gradient_Swatch_5" x1="1.05" y1="60.23" x2="11.89" y2="60.23" gradientUnits="userSpaceOnUse">
      <stop offset="0" stop-color="#3c1026"></stop>
      <stop offset="0.5" stop-color="#d22d70"></stop>
      <stop offset="1" stop-color="#c45780"></stop>
    </linearGradient>
    <linearGradient id="New_Gradient_Swatch_5-2" x1="18.4" y1="54.05" x2="29.24" y2="54.05" xlink:href="#New_Gradient_Swatch_5"></linearGradient>
    <linearGradient id="New_Gradient_Swatch_5-3" x1="35.76" y1="57.31" x2="46.6" y2="57.31" xlink:href="#New_Gradient_Swatch_5"></linearGradient>
    <linearGradient id="New_Gradient_Swatch_5-4" x1="53.11" y1="49.29" x2="63.95" y2="49.29" xlink:href="#New_Gradient_Swatch_5"></linearGradient>
    <linearGradient id="New_Gradient_Swatch_5-5" x1="0" y1="20.96" x2="65" y2="20.96" xlink:href="#New_Gradient_Swatch_5"></linearGradient>
  </defs>
  <g id="Layer_2" data-name="Layer 2">
    <g id="Layer_1-2" data-name="Layer 1">
      <rect class="cls-1" x="1.05" y="47.46" width="10.84" height="25.54"></rect>
      <rect class="cls-2" x="18.4" y="35.1" width="10.84" height="37.9"></rect>
      <rect class="cls-3" x="35.76" y="41.62" width="10.84" height="31.38"></rect>
      <rect class="cls-4" x="53.11" y="25.58" width="10.84" height="47.42"></rect>
      <path class="cls-5" d="M64.65.27a1,1,0,0,0-1.48.1L41,26.37,24.4,15a1,1,0,0,0-1.34.16L.29,40.1a1.09,1.09,0,0,0,0,1.52,1,1,0,0,0,.72.3,1.07,1.07,0,0,0,.76-.34L24,17.32,40.6,28.69A1,1,0,0,0,42,28.5L64.74,1.79A1.1,1.1,0,0,0,64.65.27Z"></path>
    </g>
  </g>
</svg>
